<?xml version="1.0" encoding="utf-8"?>
<!-- Generator: Adobe Illustrator 21.0.0, SVG Export Plug-In . SVG Version: 6.00 Build 0)  -->
<svg version="1.1" id="Ebene_1" xmlns="http://www.w3.org/2000/svg" xmlns:xlink="http://www.w3.org/1999/xlink" x="0px" y="0px"
	 viewBox="0 0 134.5 250" style="enable-background:new 0 0 134.5 250;" xml:space="preserve">
<style type="text/css">
	.st0{fill:#6E4315;}
	.st1{fill:#FFD3AD;}
	.st2{fill:#433934;}
	.st3{fill:#A29500;}
	.st4{fill:none;stroke:#FFFFFF;stroke-width:3.73;stroke-linecap:round;stroke-miterlimit:10;stroke-dasharray:0,3.11;}
	.st5{fill:#AF6617;}
	.st6{fill:#89B9BB;}
	.st7{fill:#454C53;}
</style>
<g id="Ebene_2_2_">
	<polygon class="st0" points="16,80 16.3,49.8 41.5,48.5 66.7,57.3 64.3,80 	"/>
	<path class="st1" d="M69.4,104.4c0-16.3-5.9-25.5-21.8-28v-5.1h-15v5.1c-15,2.5-21.6,11.7-21.6,28l-9.7,45.2l10.6,2.6l10.3-49.8
		c0-12.6,17.2-5.9,17.2-5.9c12.8,0,19.1-7,19.1,5.9l10.3,49.8l10.4-2.6L69.4,104.4z"/>
	<path class="st1" d="M40.4,150.7l14.5-0.3l-4.4,55.9c0,0,8.2,8.1,2.7,8.9c-9.2,1.5-12.2-8.6-12.2-8.6S41.6,171.1,40.4,150.7z"/>
	<path class="st2" d="M50.5,205.6c0,0,10.9,10.7,3.4,13.6c-5.9,2.3-13-3-12.9-12.6c0,0,8.6,9.2,10.7,8S50.5,205.6,50.5,205.6z"/>
	<path class="st1" d="M38.7,150.7l-14.5-0.3l4.4,55.9c0,0-8.2,8.1-2.7,8.9c9.2,1.5,12.2-8.6,12.2-8.6S37.5,171.1,38.7,150.7z"/>
	<path class="st2" d="M28.6,205.6c0,0-10.9,10.7-3.4,13.6c5.9,2.3,13-3,12.9-12.6c0,0-8.6,9.2-10.7,8S28.6,205.6,28.6,205.6z"/>
	<path class="st3" d="M70.9,162.1c-2.1-8.8-9.5-51.1-30.6-51.1s-28.4,42.3-30.5,51.1H70.9z"/>
	<path class="st1" d="M67.2,46.7c0,15.3-14,27.8-27.1,27.8S13.1,62,13.1,46.7s12.1-27.8,27.1-27.8S67.2,31.3,67.2,46.7z"/>
	<path class="st1" d="M9.2,154.7c-0.6,2.5-3.2,4-5.7,3.4l0,0c-2.5-0.6-4-3.2-3.4-5.7c0,0,0,0,0,0l1.5-6c0.6-2.5,3.2-4,5.7-3.4
		c0,0,0,0,0,0l0,0c2.5,0.6,4,3.2,3.4,5.7c0,0,0,0,0,0L9.2,154.7z"/>
	<path class="st1" d="M71.4,154.7c0.6,2.5,3.2,4,5.7,3.4c0,0,0,0,0,0l0,0c2.5-0.6,4-3.2,3.4-5.7c0,0,0,0,0,0l-1.5-6
		c-0.6-2.5-3.2-4-5.7-3.4l0,0c-2.5,0.6-4,3.2-3.4,5.7c0,0,0,0,0,0L71.4,154.7z"/>
	<path class="st2" d="M68.5,91.8C65.6,80.1,53,77.4,53,77.4L40.3,95L27.6,77.4c0,0-12.6,2.6-15.5,14.4c-1.4,6-2.4,12.2-3.1,18.3
		l13.1,0.5V124l18.2,4.7l18.2-4.7v-13.3l13.1-0.4C70.8,104,69.8,97.9,68.5,91.8z"/>
	<line class="st4" x1="79.4" y1="142.1" x2="66.6" y2="144.7"/>
	<path class="st5" d="M62.6,81.7c0,0,0.9-21.2-0.6-36.4c-0.8-8.2-5.9-14.9-5.9-14.9s-6,5.6-23.3,7.8C26,39,18.1,39.5,18.1,39.5
		s-0.6,37.8,0.5,42.3h-4.9c-9.3-37.5,1.2-68.8,21.3-69.4c12.2-0.3,17,4.9,17,4.9s9-2.5,14.6,13.1s0.9,51.4,0.9,51.4H62.6z"/>
</g>
<g id="Ebene_4_1_">
	<path class="st1" d="M127,73.7c0,13.5-12.3,24.4-23.8,24.4S79.5,87.2,79.5,73.7s10.6-24.4,23.8-24.4S127,60.3,127,73.7z"/>
	<rect x="96.5" y="94.1" class="st1" width="14" height="7"/>
	<path class="st1" d="M103.2,99.1H103c-16.4,0-24.8,8.5-24.8,24.9l-4.6,37.5v4.9c0,2.2,0.8,4,3,4s3-1.8,3-4v-2.3h2.9L85,142
		l1.1-19.3c0-11,5.8-11.5,16.9-11.5l0.1,0.5c11,0,16.9-0.1,16.9,10.9l3.7,41.5h0.8v2.3c0,2.2,2.8,4,5,4c2.2,0,5-1.8,5-4v-1.8
		l-0.7-2.9l-5.9-37.6C127.9,107.6,119.6,99.1,103.2,99.1z"/>
	<path class="st6" d="M87.9,145.1l-0.5,65H97c0,0,2.5-49.2,5.8-49.2s5.8,49.2,5.8,49.2h9.5l0.2-65H87.9z"/>
	<path class="st3" d="M103.2,103.7c-2.8,0-5.3-1.4-6.8-3.8c-10,1.6-16.2,7.5-18.1,17.3c-0.4,2.1-5.7,41.9-5.7,41.9h10.4l4.4-33
		l0.1,26.6l30.6,0.5l0.8-26.3l4.3,32.2h10.1c0,0-5.5-42.1-6.4-45c-2.4-7.7-8.1-12.9-16.8-14.3C108.7,102.2,106,103.7,103.2,103.7z"
		/>
	<path class="st5" d="M87.6,209.7c0,0-4.1,0.9-6.4,1.4s-3.4,3.4,0.6,3.5s15.2-0.1,15.2-0.1l-0.1-5.5L87.6,209.7z"/>
	<path class="st7" d="M79.4,213.6c0.7,0.7,1.7,1,2.8,0.9c4,0.1,15,0,15,0v-0.9H79.4z"/>
	<path class="st5" d="M118.1,210.1c0,0,4.6,1,6.9,1.4s2.5,3.1-1.5,3.2s-14.9-0.2-14.9-0.2v-4.4H118.1z"/>
	<path class="st7" d="M126.3,213.6c-0.7,0.7-1.7,1-2.8,0.9c-4,0.1-14.9,0-14.9,0v-0.9H126.3z"/>
	<path class="st2" d="M126.7,71.8c0,0-9.9-7.4-11-15.9c0,0-10.4,5.2-18.6,8.5S79.5,76.2,79.5,76.2s-3.5-13.7,8-22.4s23.4-6.7,29-2.7
		S127,64.5,126.7,71.8z"/>
</g>
</svg>
