<?xml version="1.0" encoding="utf-8"?>
<!-- Generator: Adobe Illustrator 21.0.0, SVG Export Plug-In . SVG Version: 6.00 Build 0)  -->
<svg version="1.1" id="Layer_1" xmlns="http://www.w3.org/2000/svg" xmlns:xlink="http://www.w3.org/1999/xlink" x="0px" y="0px"
	 viewBox="0 0 512 512" style="enable-background:new 0 0 512 512;" xml:space="preserve">
<style type="text/css">
	.st0{fill:#FFFFFF;}
</style>
<g>
	<g>
		<path class="st0" d="M447.1,47.8c-3.3-3.4-7-6.6-10.7-9.4C395,6.4,335,9.6,296.5,47.7c-28.7,28.4-38.1,68.8-28,104.8
			c3.4,12.5,9.2,24.5,17.4,35.2l0.2,0.2c0.8,0.8,1.4,1.6,1.9,2.4c3.4,5.3,2.8,12-1.9,16.6l-7.9,8.3l37.4,37.4l16.8-16.8
			c21-20.8,21.2-54.4,0.7-75.2l0.1-0.1c-20.6-20.8-20.2-54.5,0.8-75.3c19.7-19.5,50.3-20.7,71-3.8l99.5,38.7c0,0,4.8-4.9,7.6-7.6
			L447.1,47.8z"/>
		<path class="st0" d="M51,442.6C37.2,456.4,17.6,461,0,456.3c2.3,8.7,6.8,16.9,13.6,23.7c20.6,20.6,53.9,20.6,74.6,0.1l0.1-0.1
			l13.8-13.9l-37.4-37.4L51,442.6z"/>
		<path class="st0" d="M268.1,225.3c-0.2,0.1-0.4,0.1-0.5,0.2L119,374.4l-30.6,30.7l-13.5,13.5l37.2,37.2c0.2-0.1,0.3-0.1,0.5-0.2
			l192.8-192.8L268.1,225.3L268.1,225.3z"/>
	</g>
</g>
</svg>
