<?xml version="1.0" encoding="iso-8859-1"?>
<!-- Generator: Adobe Illustrator 16.0.0, SVG Export Plug-In . SVG Version: 6.00 Build 0)  -->
<!DOCTYPE svg PUBLIC "-//W3C//DTD SVG 1.1//EN" "http://www.w3.org/Graphics/SVG/1.1/DTD/svg11.dtd">
<svg xmlns="http://www.w3.org/2000/svg" xmlns:xlink="http://www.w3.org/1999/xlink" version="1.1" id="Capa_1" x="0px" y="0px" width="512px" height="512px" viewBox="0 0 31.261 31.261" style="enable-background:new 0 0 31.261 31.261;" xml:space="preserve">
<g>
	<path d="M8.097,11.695L5.189,6.659C4.836,6.048,5.045,5.267,5.656,4.914C6.266,4.562,7.047,4.772,7.4,5.382l2.907,5.037   L8.097,11.695z M16.311,6.952l2.212-1.277l-2.907-5.036c-0.354-0.61-1.134-0.82-1.745-0.468c-0.61,0.353-0.819,1.134-0.467,1.744   L16.311,6.952z M24.739,18.441c0.471,1.588-0.602,2.682-2.188,3.709c0.004,0.01,0.017,0.016,0.021,0.024   c1.051,1.822,1.721,6.029-3.278,8.916c-0.61,0.351-1.392,0.142-1.744-0.469c-0.352-0.608-0.143-1.392,0.467-1.744   c4.062-2.344,2.416-5.303,2.346-5.428c-0.006-0.011-0.006-0.021-0.013-0.031c-1.686,0.86-3.166,1.242-4.306,0.039   c-2.114,0.567-3.943,0.155-5.353-2.287c-0.195-0.338-0.852-1.474-0.852-1.474l-2.553-4.423c-0.468-0.81-0.188-1.856,0.623-2.325   L19.702,6.14c0.812-0.468,1.856-0.187,2.328,0.624l2.553,4.423c0,0,0.656,1.136,0.851,1.474   C26.843,15.104,26.285,16.895,24.739,18.441z M22.66,14.644c-0.116-0.203-0.512-0.887-0.512-0.887l-0.685-1.187   c-0.282-0.487-0.912-0.656-1.397-0.375l-7.096,4.096c-0.487,0.281-0.656,0.912-0.375,1.398l0.686,1.188   c0,0,0.395,0.686,0.512,0.887c1.413,2.449,3.521,1.516,5.97,0.103C22.212,18.451,24.074,17.091,22.66,14.644z M20.52,13.36   l-6.767,3.908l0.296,0.514l6.767-3.907L20.52,13.36z M21.192,14.524l-6.768,3.908l0.296,0.514l6.767-3.907L21.192,14.524z    M15.096,19.594l0.297,0.516l6.767-3.906l-0.297-0.515L15.096,19.594z" fill="#FFFFFF"/>
</g>
<g>
</g>
<g>
</g>
<g>
</g>
<g>
</g>
<g>
</g>
<g>
</g>
<g>
</g>
<g>
</g>
<g>
</g>
<g>
</g>
<g>
</g>
<g>
</g>
<g>
</g>
<g>
</g>
<g>
</g>
</svg>
