<?xml version="1.0" encoding="utf-8"?>
<!-- Generator: Adobe Illustrator 21.0.0, SVG Export Plug-In . SVG Version: 6.00 Build 0)  -->
<svg version="1.1" id="Capa_1" xmlns="http://www.w3.org/2000/svg" xmlns:xlink="http://www.w3.org/1999/xlink" x="0px" y="0px"
	 viewBox="0 0 512 512" style="enable-background:new 0 0 512 512;" xml:space="preserve">
<style type="text/css">
	.st0{fill:#FFFFFF;}
</style>
<g>
	<path class="st0" d="M459.9,90.8c-23.9,0-44.9-14.4-62.8-43C377.7,35.3,349.4,19.6,312.2,1l-13.1-1C226,5.4,180.6,23.6,163.4,54.9
		c0.7-0.7,1.7-1.3,3-2c21.9-9.3,48.2-11.6,78.9-6.9c34.6,5.4,44.5,19.3,29.9,41.9L42.7,457.1c-4,7.3-0.7,14,9.9,20l53.9,31
		c10.7,6,18.3,5.4,23-2l196.6-374.2c12-11.4,23.9-15.8,35.9-13.5s22.5,7.4,31.5,15.4c9,8,13.5,15,13.5,20.9
		c12,9.3,24.2,10.8,36.4,4.4c12.3-6.3,20.8-17.2,25.5-32.9C473.5,110.6,470.4,98.7,459.9,90.8z"/>
</g>
</svg>
