<?xml version="1.0" encoding="utf-8"?>
<!-- Generator: Adobe Illustrator 21.0.0, SVG Export Plug-In . SVG Version: 6.00 Build 0)  -->
<svg version="1.1" id="Capa_1" xmlns="http://www.w3.org/2000/svg" xmlns:xlink="http://www.w3.org/1999/xlink" x="0px" y="0px"
	 viewBox="0 0 512 512" style="enable-background:new 0 0 512 512;" xml:space="preserve">
<style type="text/css">
	.st0{fill:#FFFFFF;}
</style>
<g>
	<path class="st0" d="M412.1,129.5c-18.3,0-34.4-11-48.1-32.9C349.2,87,327.5,75,299,60.8L289,60c-56,4.1-90.7,18.1-103.9,42
		c0.5-0.5,1.3-1,2.3-1.5c16.8-7.1,36.9-8.9,60.4-5.3c26.5,4.1,34.1,14.8,22.9,32.1l-178,282.7c-3.1,5.6-0.5,10.7,7.6,15.3l41.3,23.7
		c8.2,4.6,14,4.1,17.6-1.5l150.5-286.5c9.2-8.7,18.3-12.1,27.5-10.3c9.2,1.8,17.2,5.7,24.1,11.8c6.9,6.1,10.3,11.5,10.3,16
		c9.2,7.1,18.5,8.3,27.9,3.4c9.4-4.8,15.9-13.2,19.5-25.2C422.5,144.7,420.2,135.6,412.1,129.5z"/>
</g>
</svg>
