<?xml version="1.0" encoding="utf-8"?>
<!-- Generator: Adobe Illustrator 21.0.0, SVG Export Plug-In . SVG Version: 6.00 Build 0)  -->
<svg version="1.1" id="Layer_1" xmlns="http://www.w3.org/2000/svg" xmlns:xlink="http://www.w3.org/1999/xlink" x="0px" y="0px"
	 viewBox="0 0 512 512" style="enable-background:new 0 0 512 512;" xml:space="preserve">
<style type="text/css">
	.st0{fill:#FFFFFF;}
</style>
<g>
	<path class="st0" d="M311.3,319.1c-5.1-7.7-13.7-11.9-22.2-11.9h-7.7v-31.6l32.4-48.6c1.7-1.7,1.7-3.4,1.7-5.1V68.3H196.1v153.6
		c0,1.7,0.9,3.4,1.7,5.1l32.4,48.6v31.6h-6.8c-8.5,0-17.1,4.3-22.2,11.9s-6,17.1-2.6,24.7l6.8,17.1c0,0,0.9,0.9,0.9,1.7
		c0.2,0.4,0.4,0.9,0.6,1.3c-0.2-0.4-0.5-0.9-0.7-1.3l6.5,20.3c1.6,11.4,0.4,24.5-3.4,40c-0.2,0.7-0.4,1.3-0.6,2
		c-0.1,0.4-0.2,0.9-0.4,1.3c-0.1,0.1-0.2,0.2-0.4,0.4l0,1.1c-1.4,5.2-2.6,10.9-2.6,16v19.6c0,4.5,0.6,9,1.8,13.2l0,1.4
		c6,19.6,24.7,34.1,46.1,34.1h5.1c27.3,0,48.6-22.2,48.6-48.6v-19.6c0-6-1.7-12.8-3.4-18.8c-7.7-24.7-6.8-46.9,2.6-62.3
		c0,0,0-0.9,0.9-0.9l6.8-17.9C317.3,335.4,316.4,326,311.3,319.1z M264.4,307.2h-17.1v-25.6h17.1V307.2z"/>
	<path class="st0" d="M315.6,8.5c0-5.1-3.4-8.5-8.5-8.5H204.6c-4.3,0-8.5,4.3-8.5,8.5v42.7h119.5V8.5z"/>
</g>
</svg>
