<?xml version="1.0" encoding="utf-8"?>
<!-- Generator: Adobe Illustrator 21.0.0, SVG Export Plug-In . SVG Version: 6.00 Build 0)  -->
<svg version="1.1" id="Ebene_1" xmlns="http://www.w3.org/2000/svg" xmlns:xlink="http://www.w3.org/1999/xlink" x="0px" y="0px"
	 viewBox="0 0 195.6 250" style="enable-background:new 0 0 195.6 250;" xml:space="preserve">
<style type="text/css">
	.st0{fill:#6E4315;}
	.st1{fill:#FFD3AD;}
	.st2{fill:#433934;}
	.st3{fill:#A29500;}
	.st4{fill:none;stroke:#FFFFFF;stroke-width:3.73;stroke-linecap:round;stroke-miterlimit:10;stroke-dasharray:0,3.11;}
	.st5{fill:#AF6617;}
	.st6{fill:#89B9BB;}
	.st7{fill:#454C53;}
	.st8{fill:#FFAB00;}
	.st9{fill:none;stroke:#FFFFFF;stroke-width:2.66;stroke-linecap:round;stroke-miterlimit:10;stroke-dasharray:0,2.21;}
</style>
<g id="Ebene_2_1_">
	<polygon class="st0" points="81.1,82.3 81.4,52.1 106.6,50.8 131.8,59.6 129.4,82.3 	"/>
	<path class="st1" d="M134.5,106.7c0-16.3-5.9-25.5-21.9-28v-5.1h-15v5.1c-15,2.5-21.6,11.7-21.6,28L66.4,152l10.6,2.6l10.3-49.8
		c0-12.6,17.2-5.9,17.2-5.9c12.8,0,19.1-7,19.1,5.9l10.3,49.8l10.4-2.6L134.5,106.7z"/>
	<path class="st1" d="M105.6,153l14.5-0.3l-4.4,55.9c0,0,8.2,8.1,2.7,8.9c-9.2,1.5-12.2-8.6-12.2-8.6S106.7,173.4,105.6,153z"/>
	<path class="st2" d="M115.6,207.9c0,0,10.9,10.7,3.4,13.6c-5.9,2.3-13-3-12.9-12.6c0,0,8.6,9.2,10.7,8S115.6,207.9,115.6,207.9z"/>
	<path class="st1" d="M103.8,153l-14.5-0.3l4.4,55.9c0,0-8.2,8.1-2.7,8.9c9.2,1.5,12.2-8.6,12.2-8.6S102.7,173.4,103.8,153z"/>
	<path class="st2" d="M93.7,207.9c0,0-10.9,10.7-3.4,13.6c5.9,2.3,13-3,12.9-12.6c0,0-8.6,9.2-10.7,8
		C90.4,215.7,93.7,207.9,93.7,207.9z"/>
	<path class="st3" d="M136,164.4c-2.1-8.8-9.5-51.1-30.6-51.1S77,155.6,74.9,164.4L136,164.4z"/>
	<path class="st1" d="M132.4,49c0,15.3-14,27.8-27.1,27.8S78.2,64.3,78.2,49s12.1-27.8,27.1-27.8S132.4,33.6,132.4,49z"/>
	<path class="st1" d="M74.3,157c-0.6,2.5-3.2,4-5.7,3.4l0,0c-2.5-0.6-4-3.2-3.4-5.7c0,0,0,0,0,0l1.5-6c0.6-2.5,3.2-4,5.7-3.4
		c0,0,0,0,0,0l0,0c2.5,0.6,4,3.2,3.4,5.7c0,0,0,0,0,0L74.3,157z"/>
	<path class="st1" d="M136.4,157c0.6,2.5,3.2,4,5.7,3.4c0,0,0,0,0,0l0,0c2.5-0.6,4-3.2,3.4-5.7c0,0,0,0,0,0l-1.5-6
		c-0.6-2.5-3.2-4-5.7-3.4l0,0c-2.5,0.6-4,3.2-3.4,5.7c0,0,0,0,0,0L136.4,157z"/>
	<path class="st2" d="M133.6,94.1c-2.9-11.8-15.5-14.4-15.5-14.4l-12.7,17.5L92.7,79.7c0,0-12.6,2.6-15.5,14.4
		c-1.4,6-2.4,12.2-3.1,18.3l13.1,0.5v13.3l18.2,4.7l18.2-4.7v-13.3l13.1-0.4C136,106.3,135,100.2,133.6,94.1z"/>
	<line class="st4" x1="144.5" y1="144.4" x2="131.7" y2="147"/>
	<path class="st5" d="M127.8,84c0,0,0.9-21.2-0.6-36.4c-0.8-8.2-5.9-14.9-5.9-14.9s-6,5.6-23.3,7.8c-6.8,0.8-14.6,1.3-14.6,1.3
		S82.6,79.6,83.7,84h-4.9c-9.3-37.5,1.2-68.8,21.3-69.4c12.1-0.3,17,4.9,17,4.9s9-2.5,14.6,13.1s0.9,51.4,0.9,51.4L127.8,84z"/>
</g>
<g id="Ebene_1_2_">
	<path class="st1" d="M64.6,41.5c0,15.3-14,27.8-27.1,27.8s-27-12.4-27-27.8s12.1-27.8,27.1-27.8S64.6,26.1,64.6,41.5z"/>
	<rect x="29" y="67.3" class="st1" width="18" height="8"/>
	<path class="st1" d="M37.5,73.3h-0.3c-20.2,0-31,10.2-31,30.4L0,149.5v6c0,2.7,1.8,4.9,4.5,4.9s4.5-2.2,4.5-4.9v-3.3h3l3.2-26.9
		l1.4-23.6c0-13.6,7.2-14.1,20.7-14.1l0.2,0.6c13.6,0,20.7-0.4,20.7,13.2l4.6,50.9H64v3.3c0,2.7,3.3,4.9,6,4.9s6-2.2,6-4.9v-2.2
		l-0.8-3.5l-7.4-46.1C67.8,83.5,57.7,73.3,37.5,73.3z"/>
	<path class="st2" d="M18.7,129.3l-0.6,79H30c0,0,3.1-60.5,7.2-60.5s7.2,60.5,7.2,60.5H56l0.2-79L18.7,129.3z"/>
	<path class="st6" d="M37.5,84.5c0,0-8.1-10.8-8.3-10.8C16.9,75.8,9.3,83.4,7,95.4c-0.5,2.6-7,51.9-7,51.9h12.9l5.4-40.9l0.2,32.6
		l37.7,0.5l1-32.1l5.2,40h12.4c0,0-6.8-52.1-7.9-55.7c-3-9.5-10-16-20.7-17.8L37.5,84.5z"/>
	<path class="st5" d="M18.4,208.9c0,0-5.1,1.1-7.8,1.7s-4.1,4.2,0.8,4.3s18.8-0.1,18.8-0.1l-0.1-6.7L18.4,208.9z"/>
	<path class="st7" d="M8.3,213.7c0.5,0.6,1.6,1.1,3.4,1.2c4.9,0.1,18.5,0,18.5,0v-1.2H8.3z"/>
	<path class="st7" d="M15.1,213c0,0.1-0.3-1.2-0.3-1.3s-0.6-1.5-0.4-1.2c-0.1-0.2-0.3-0.5-0.4-0.7c-1.5,0.4-3,0.8-4.1,1
		c-2.7,0.6-3.2,4,1.7,4.1c0.9,0,2.2,0,3.5,0.1C15.2,214.3,15.2,213.6,15.1,213z"/>
	<path class="st5" d="M55.9,208.3c0,0,5.7,1.8,8.4,2.3c2.7,0.6,3.5,4-1.4,4.2S45,214.9,45,214.9v-6.6L55.9,208.3z"/>
	<path class="st7" d="M66,213.7c-0.5,0.6-1.6,1.1-3.4,1.2c-4.9,0.1-18.3,0-18.3,0v-1.2H66z"/>
	<path class="st7" d="M59.2,213c0,0.1,0.2-1.2,0.3-1.3s0.6-1.5,0.4-1.2c0.1-0.2,0.3-0.5,0.4-0.7c1.5,0.4,3,0.8,4.1,1
		c2.7,0.6,3.2,4-1.7,4.1c-0.9,0-2.2,0-3.6,0.1C59.1,214.3,59.1,213.6,59.2,213z"/>
	<path class="st5" d="M58.2,53c-1.6,4.4-8.1,9.3-9.7,6.8s-4.4-8.7-11.2-8.7s-9.7,6.3-11.2,8.7s-8.1-2.5-9.6-6.9s-6-8.7-6-8.7
		s1.1,16.3,9.8,20.4s10.2,6.7,17,6.7s8.3-2.7,17-6.7s9.8-20.4,9.8-20.4S59.8,48.6,58.2,53z M37,59.8c-4,0-6-3.1,0-3.1
		C45,56.7,41,59.8,37,59.8L37,59.8z"/>
	<path class="st5" d="M10.5,39.3c0,0,11.3-8.4,12.6-18c0,0,11.8,5.9,21.2,9.6S57,31.8,57,31.8l7.3,12.5c0,0,4-15.6-9.1-25.5
		s-21.5-6.5-21.5-6.5L34,9.4c0,0-9,1.9-11.8,6.2c0,0-5.3,2.2-7.8,5.3l1.6,0.9C15.9,21.8,10.1,30.9,10.5,39.3z"/>
</g>
<g id="Ebene_4">
	<path class="st0" d="M157.1,70.9c0,0-3.4-6.8-10.7-4.9c-7.3,1.9-9.8,12.9-7.3,24.6s-1,14.5-1,14.5s9.8,1.9,13.9-3.8
		s4.7-29.7,4.7-29.7"/>
	<path class="st0" d="M176.7,70.9c0,0,3.4-6.8,10.7-4.9c7.3,1.9,9.8,12.9,7.3,24.6s1,14.5,1,14.5s-9.8,1.9-13.9-3.8
		S177,71.6,177,71.6"/>
	<path class="st1" d="M186.9,134.9c0-11.6-4.2-18.1-15.2-19.9v-9.7h-11v9.7c-11,1.8-15.5,8.3-15.5,19.9l-7,32.1l7.5,1.9l7.3-35.4
		c0-9,12.2-4.2,12.2-4.2c9.1,0,13.6-5,13.6,4.2l7.3,35.4l7.6-1.9L186.9,134.9z"/>
	<path class="st1" d="M166,167.9l10.3-0.2l-3.2,39.7c0,0,5.8,5.7,1.9,6.4c-6.5,1-8.6-6.1-8.6-6.1S166.8,182.4,166,167.9z"/>
	<path class="st8" d="M173.1,206.9c0,0,7.7,7.6,2.4,9.7c-4.2,1.6-9.2-2.2-9.2-8.9c0,0,6.1,6.6,7.6,5.7S173.1,206.9,173.1,206.9z"/>
	<path class="st1" d="M164.7,167.9l-10.3-0.2l3.2,39.7c0,0-5.8,5.7-1.9,6.4c6.5,1,8.6-6.1,8.6-6.1S163.9,182.4,164.7,167.9z"/>
	<path class="st8" d="M157.5,206.9c0,0-7.7,7.6-2.4,9.7c4.2,1.6,9.2-2.2,9.2-8.9c0,0-6.1,6.6-7.6,5.7S157.5,206.9,157.5,206.9z"/>
	<path class="st8" d="M183.3,176c-1.5-6.2-2.4-36.3-17.4-36.3s-16.6,30.1-18.1,36.3H183.3z"/>
	<path class="st1" d="M188.2,90.1c0,12.7-11.6,23-22.4,23s-22.4-10.3-22.4-23s10-23,22.4-23S188.2,77.4,188.2,90.1z"/>
	<path class="st1" d="M143.7,170.7c-0.4,1.8-2.2,2.8-4,2.4l0,0c-1.8-0.4-2.8-2.2-2.4-4l1.1-4.3c0.4-1.8,2.2-2.8,4-2.4l0,0
		c1.8,0.4,2.8,2.2,2.4,4L143.7,170.7z"/>
	<path class="st1" d="M187.9,170.7c0.4,1.8,2.2,2.8,4,2.4l0,0c1.8-0.4,2.8-2.2,2.4-4l-1.1-4.3c-0.4-1.8-2.2-2.8-4-2.4l0,0
		c-1.8,0.4-2.8,2.2-2.4,4L187.9,170.7z"/>
	<path class="st8" d="M185.9,126c-2.1-8.4-11-10.2-11-10.2l-9,12.5l-9-12.5c0,0-9,1.9-11,10.2c-1,4.3-1.7,8.6-2.2,13l9.3,0.4v18
		l12.9-5.1l12.9,5.1v-18l9.3-0.3C187.6,134.7,186.9,130.3,185.9,126z"/>
	<line class="st9" x1="193.6" y1="161.7" x2="184.5" y2="163.6"/>
	<path class="st5" d="M166.9,78.5c-0.1-0.3-0.7-0.6-1.3,0.5c-2.8,4.8-11.6,17.6-21.5,16.5c-1.2-4.1-1.2-8.4,0-12.4
		c2.3-7.6,9.3-16.2,23-16c14.9,0.3,20.1,10.8,20.9,19.4c0.6,6.8-1,9.8-1,9.8S172.6,93.1,166.9,78.5z"/>
</g>
</svg>
