<?xml version="1.0" encoding="utf-8"?>
<!-- Generator: Adobe Illustrator 21.0.0, SVG Export Plug-In . SVG Version: 6.00 Build 0)  -->
<svg version="1.1" id="Ebene_1" xmlns="http://www.w3.org/2000/svg" xmlns:xlink="http://www.w3.org/1999/xlink" x="0px" y="0px"
	 viewBox="0 0 145.7 250" style="enable-background:new 0 0 145.7 250;" xml:space="preserve">
<style type="text/css">
	.st0{fill:#6E4315;}
	.st1{fill:#FFD3AD;}
	.st2{fill:#433934;}
	.st3{fill:#A29500;}
	.st4{fill:none;stroke:#FFFFFF;stroke-width:3.73;stroke-linecap:round;stroke-miterlimit:10;stroke-dasharray:0,3.11;}
	.st5{fill:#AF6617;}
	.st6{fill:#89B9BB;}
	.st7{fill:#454C53;}
</style>
<g id="Ebene_2">
	<polygon class="st0" points="81.1,82.7 81.4,52.4 106.6,51.1 131.8,59.9 129.4,82.7 	"/>
	<path class="st1" d="M134.5,107.1c0-16.3-5.9-25.5-21.9-28V74h-15v5.1c-15,2.5-21.6,11.7-21.6,28l-9.7,45.2L77,155l10.3-49.8
		c0-12.6,17.2-5.9,17.2-5.9c12.8,0,19.1-7,19.1,5.9l10.3,49.8l10.5-2.7L134.5,107.1z"/>
	<path class="st1" d="M105.6,153.4l14.5-0.3l-4.4,55.9c0,0,8.2,8.1,2.7,8.9c-9.2,1.5-12.2-8.6-12.2-8.6S106.7,173.7,105.6,153.4z"/>
	<path class="st2" d="M115.6,208.2c0,0,10.9,10.7,3.4,13.6c-5.9,2.3-13-3-12.9-12.6c0,0,8.6,9.2,10.7,8S115.6,208.2,115.6,208.2z"/>
	<path class="st1" d="M103.8,153.4L89.3,153l4.4,55.9c0,0-8.2,8.1-2.7,8.9c9.2,1.5,12.2-8.6,12.2-8.6S102.7,173.7,103.8,153.4z"/>
	<path class="st2" d="M93.7,208.2c0,0-10.9,10.7-3.4,13.6c5.9,2.3,13-3,12.9-12.6c0,0-8.6,9.2-10.7,8S93.7,208.2,93.7,208.2z"/>
	<path class="st3" d="M136,164.8c-2.1-8.8-9.5-51.1-30.6-51.1S77,156,74.9,164.8H136z"/>
	<path class="st1" d="M132.3,49.3c0,15.3-14,27.8-27.1,27.8s-27-12.5-27-27.8s12.1-27.8,27.1-27.8S132.3,34,132.3,49.3z"/>
	<path class="st1" d="M74.3,157.4c-0.6,2.5-3.2,4-5.7,3.4c0,0,0,0,0,0l0,0c-2.5-0.6-4-3.2-3.4-5.7c0,0,0,0,0,0l1.5-6
		c0.6-2.5,3.2-4,5.7-3.4c0,0,0,0,0,0l0,0c2.5,0.6,4,3.2,3.4,5.7c0,0,0,0,0,0L74.3,157.4z"/>
	<path class="st1" d="M136.5,157.4c0.6,2.5,3.2,4,5.7,3.4c0,0,0,0,0,0l0,0c2.5-0.6,4-3.2,3.4-5.7c0,0,0,0,0,0l-1.5-6
		c-0.6-2.5-3.2-4-5.7-3.4l0,0c-2.5,0.6-4,3.2-3.4,5.7c0,0,0,0,0,0L136.5,157.4z"/>
	<path class="st2" d="M133.6,94.5c-2.9-11.8-15.5-14.4-15.5-14.4l-12.7,17.5L92.7,80.1c0,0-12.6,2.6-15.5,14.4
		c-1.4,6-2.4,12.2-3.1,18.3l13.1,0.5v13.3l18.2,4.7l18.2-4.7v-13.3l13.1-0.4C135.9,106.7,134.9,100.5,133.6,94.5z"/>
	<line class="st4" x1="144.5" y1="144.8" x2="131.7" y2="147.3"/>
	<path class="st5" d="M127.8,84.4c0,0,0.9-21.2-0.6-36.4c-0.8-8.2-5.9-14.9-5.9-14.9s-6,5.6-23.3,7.8c-6.8,0.8-14.6,1.3-14.6,1.3
		s-0.6,37.8,0.5,42.3h-4.9C69.5,46.9,80,15.6,100.2,15c12.1-0.3,17,4.9,17,4.9s9-2.5,14.6,13.1s0.9,51.4,0.9,51.4L127.8,84.4z"/>
</g>
<g id="Ebene_1_1_">
	<path class="st1" d="M64.6,41.8c0,15.3-14,27.8-27.1,27.8S10.5,57.2,10.5,41.8s12.1-27.8,27.1-27.8S64.6,26.5,64.6,41.8z"/>
	<rect x="29" y="67.6" class="st1" width="18" height="8"/>
	<path class="st1" d="M37.5,73.6h-0.3c-20.2,0-31,10.2-31,30.4L0,149.9v6c0,2.7,1.8,4.9,4.5,4.9s4.5-2.2,4.5-4.9v-3.3h3l3.2-26.9
		l1.4-23.6c0-13.6,7.2-14.1,20.7-14.1l0.2,0.6c13.6,0,20.7-0.4,20.7,13.2l4.6,50.9H64v3.3c0,2.7,3.3,4.9,6,4.9s6-2.2,6-4.9v-2.2
		l-0.8-3.5l-7.4-46.1C67.9,83.9,57.8,73.6,37.5,73.6z"/>
	<path class="st2" d="M18.7,129.6l-0.6,79H30c0,0,3.1-60.5,7.2-60.5c4.1,0,7.2,60.5,7.2,60.5H56l0.2-79L18.7,129.6z"/>
	<path class="st6" d="M37.5,84.9c0,0-8.1-10.8-8.3-10.8C16.9,76.1,9.3,83.7,7,95.8c-0.5,2.6-7,51.9-7,51.9h12.9l5.5-40.9l0.2,32.6
		l37.7,0.5l0.9-32.1l5.2,40h12.4c0,0-6.8-52.1-7.9-55.7c-3-9.5-10-16-20.7-17.8L37.5,84.9z"/>
	<path class="st5" d="M18.4,209.3c0,0-5.1,1.1-7.8,1.7s-4.1,4.2,0.8,4.3s18.8-0.1,18.8-0.1l-0.1-6.7L18.4,209.3z"/>
	<path class="st7" d="M8.3,214c0.5,0.6,1.6,1.1,3.4,1.2c4.9,0.1,18.5,0,18.5,0V214H8.3z"/>
	<path class="st7" d="M15.1,213.3c0,0.1-0.3-1.2-0.3-1.3s-0.6-1.5-0.4-1.2c-0.1-0.2-0.3-0.5-0.4-0.7c-1.5,0.4-3,0.8-4.1,1
		c-2.7,0.6-3.2,4,1.7,4.1c0.9,0,2.2,0,3.6,0.1C15.2,214.6,15.2,214,15.1,213.3z"/>
	<path class="st5" d="M55.9,208.6c0,0,5.7,1.8,8.4,2.3s3.5,4-1.4,4.2S45,215.2,45,215.2v-6.6L55.9,208.6z"/>
	<path class="st7" d="M66,214c-0.5,0.6-1.6,1.1-3.4,1.2c-4.9,0.1-18.3,0-18.3,0V214H66z"/>
	<path class="st7" d="M59.2,213.3c0,0.1,0.2-1.2,0.3-1.3s0.6-1.5,0.4-1.2c0.1-0.2,0.3-0.5,0.4-0.7c1.5,0.4,3,0.8,4.1,1
		c2.7,0.6,3.2,4-1.7,4.1c-0.9,0-2.2,0-3.6,0.1C59.1,214.6,59.1,214,59.2,213.3z"/>
	<path class="st5" d="M58.2,53.3c-1.6,4.4-8.1,9.3-9.6,6.8s-4.4-8.7-11.2-8.7s-9.7,6.2-11.2,8.7s-8.1-2.5-9.7-6.8s-6-8.7-6-8.7
		s1.1,16.3,9.8,20.4s10.2,6.7,17,6.7s8.3-2.7,17-6.7s9.8-20.4,9.8-20.4S59.8,48.9,58.2,53.3z M37,60.2c-4,0-6-3.1,0-3.1
		C45,57,41,60.2,37,60.2L37,60.2z"/>
	<path class="st5" d="M10.5,39.6c0,0,11.3-8.4,12.6-18c0,0,11.8,5.9,21.2,9.6S57,32.1,57,32.1l7.3,12.5c0,0,4-15.6-9.1-25.5
		s-21.5-6.5-21.5-6.5l0.3-2.8c0,0-9,1.9-11.8,6.2c0,0-5.3,2.2-7.8,5.3l1.6,0.9C15.9,22.2,10.1,31.3,10.5,39.6z"/>
</g>
</svg>
