<?xml version="1.0" encoding="utf-8"?>
<!-- Generator: Adobe Illustrator 21.0.0, SVG Export Plug-In . SVG Version: 6.00 Build 0)  -->
<svg version="1.1" id="Capa_1" xmlns="http://www.w3.org/2000/svg" xmlns:xlink="http://www.w3.org/1999/xlink" x="0px" y="0px"
	 viewBox="0 0 512 512" style="enable-background:new 0 0 512 512;" xml:space="preserve">
<style type="text/css">
	.st0{fill:#FFFFFF;}
</style>
<g>
	<g>
		<path class="st0" d="M299.3,177.4l58.8-53.1V71.2c0-21.8-18.3-39.7-40.1-39.7H193.8c-21.8,0-39.8,17.9-39.8,39.7v53.1l58.7,53
			c-64.3,18.7-111.5,78.2-111.5,148.5c0,85.3,69.4,154.7,154.7,154.7c85.3,0,154.7-69.4,154.7-154.7
			C410.5,255.6,363.5,196.2,299.3,177.4z M271.2,62.5h46.9c5,0,9.1,3.8,9.1,8.7v31.4h-56L271.2,62.5L271.2,62.5z M271.2,133.6h30.5
			l-30.5,27.9V133.6z M184.9,71.2c0-5,3.9-8.7,8.9-8.7h47.1v40.2h-56L184.9,71.2L184.9,71.2z M210.1,133.6h30.8v27.9L210.1,133.6z
			 M255.8,429.6c-57.2,0-103.7-46.5-103.7-103.8c0-57.2,46.5-103.7,103.7-103.7c57.2,0,103.8,46.5,103.8,103.7
			C359.6,383.1,313,429.6,255.8,429.6z"/>
	</g>
</g>
</svg>
