<?xml version="1.0" encoding="iso-8859-1"?>
<!-- Generator: Adobe Illustrator 19.0.0, SVG Export Plug-In . SVG Version: 6.00 Build 0)  -->
<svg xmlns="http://www.w3.org/2000/svg" xmlns:xlink="http://www.w3.org/1999/xlink" version="1.1" id="Layer_1" x="0px" y="0px" viewBox="0 0 512.002 512.002" style="enable-background:new 0 0 512.002 512.002;" xml:space="preserve" width="512px" height="512px">
<g>
	<g>
		<path d="M508.627,22.168L489.391,2.933c-3.684-3.684-9.579-3.927-13.553-0.558l-65.36,55.401c-2.134,1.81-3.414,4.429-3.529,7.226    c-0.115,2.796,0.946,5.512,2.924,7.491l3.212,3.212l-182.89,182.89l-27.968-27.968c-3.91-3.91-10.249-3.91-14.159,0    l-20.926,20.926c12.601,17.293,9.677,43.231-7.785,60.692c-17.462,17.462-43.399,20.385-60.692,7.785l-87.013,87.013    c-14.945,14.945-14.945,39.174,0,54.118l39.632,39.632c14.945,14.945,39.174,14.945,54.118,0l87.013-87.013    c-12.601-17.293-9.677-43.231,7.785-60.692s43.399-20.385,60.692-7.785l20.926-20.926c3.91-3.91,3.91-10.249,0-14.159    l-27.968-27.968l182.89-182.89l2.328,2.328c1.978,1.978,4.696,3.039,7.491,2.924c2.796-0.115,5.416-1.395,7.226-3.529l55.4-65.36    C512.553,31.746,512.311,25.852,508.627,22.168z" fill="#FFFFFF"/>
	</g>
</g>
<g>
</g>
<g>
</g>
<g>
</g>
<g>
</g>
<g>
</g>
<g>
</g>
<g>
</g>
<g>
</g>
<g>
</g>
<g>
</g>
<g>
</g>
<g>
</g>
<g>
</g>
<g>
</g>
<g>
</g>
</svg>
