<?xml version="1.0" encoding="utf-8"?>
<!-- Generator: Adobe Illustrator 21.0.0, SVG Export Plug-In . SVG Version: 6.00 Build 0)  -->
<svg version="1.1" id="Ebene_1" xmlns="http://www.w3.org/2000/svg" xmlns:xlink="http://www.w3.org/1999/xlink" x="0px" y="0px"
	 viewBox="0 0 76 250" style="enable-background:new 0 0 76 250;" xml:space="preserve">
<style type="text/css">
	.st0{fill:#FFD3AD;}
	.st1{fill:#6E4315;}
	.st2{fill:#FFAB00;}
	.st3{fill:#AF6617;}
	.st4{fill:#454C53;}
	.st5{fill:#433934;}
</style>
<path class="st0" d="M64.7,45.7c0,15.3-14,27.8-27.1,27.8S10.6,61,10.6,45.7s12.1-27.8,27.1-27.8S64.7,30.3,64.7,45.7z"/>
<rect x="29" y="71.4" class="st0" width="18" height="8"/>
<path class="st0" d="M37.6,77.4h-0.3c-20.2,0-31.1,10.2-31.1,30.4L0,153.7v6c0,2.8,2.2,5,5,5c2.8,0,5-2.2,5-5v-3.3h2.1l3.2-26.9
	l1.4-23.6c0-13.6,7.2-14.1,20.7-14.1l0.2,0.6c13.6,0,20.7-0.4,20.7,13.2l4.6,50.9H64v3.3c0,2.7,3.3,4.9,6,4.9s6-2.2,6-4.9v-2.2
	l-0.8-3.5l-7.3-46.1C67.9,87.7,57.8,77.4,37.6,77.4z"/>
<path class="st1" d="M18.8,133.4l-0.6,79h11.9c0,0,3.1-60.5,7.1-60.5s7.2,60.5,7.2,60.5H56l0.2-79H18.8z"/>
<path class="st2" d="M37.6,82.6c-6,0-8.1-4.7-8.3-4.7C17,79.9,9.4,87.5,7.1,99.6c-0.5,2.6-7,51.9-7,51.9H13l5.4-40.9l0.2,32.6
	l37.7,0.5l0.9-32.1l5.2,40h12.4c0,0-6.8-52.1-7.9-55.7c-3-9.5-10-16-20.7-17.8C44.3,80.9,41.1,82.6,37.6,82.6z"/>
<path class="st3" d="M18.5,213.1c0,0-5.1,1.1-7.8,1.7s-4.1,4.2,0.8,4.3s18.8-0.1,18.8-0.1l-0.1-6.7L18.5,213.1z"/>
<path class="st4" d="M8.4,217.9c0.5,0.6,1.6,1.1,3.4,1.2c4.9,0.1,18.5,0,18.5,0v-1.2H8.4z"/>
<path class="st3" d="M56,212.4c0,0,5.7,1.8,8.4,2.3s3.5,4-1.4,4.2S45,219,45,219v-6.6L56,212.4z"/>
<path class="st4" d="M66.1,217.9c-0.5,0.6-1.6,1.1-3.4,1.2c-4.9,0.1-18.3,0-18.3,0v-1.2H66.1z"/>
<path class="st5" d="M64.4,43.4c0,0-11.4-8.4-12.6-18c0,0-11.8,5.9-21.2,9.6s-20,13.4-20,13.4s-4-15.6,9.1-25.5s26.7-7.6,33-3.1
	S64.8,35.1,64.4,43.4z"/>
</svg>
