<?xml version="1.0" encoding="utf-8"?>
<!-- Generator: Adobe Illustrator 21.0.0, SVG Export Plug-In . SVG Version: 6.00 Build 0)  -->
<svg version="1.1" id="Ebene_1" xmlns="http://www.w3.org/2000/svg" xmlns:xlink="http://www.w3.org/1999/xlink" x="0px" y="0px"
	 viewBox="0 0 145 250" style="enable-background:new 0 0 145 250;" xml:space="preserve">
<style type="text/css">
	.st0{fill:#FFD3AD;}
	.st1{fill:#994B31;}
	.st2{fill:none;stroke:#FFFFFF;stroke-width:3.52;stroke-linecap:round;stroke-miterlimit:10;stroke-dasharray:0,2.93;}
	.st3{fill:#FFAB00;}
	.st4{fill:#BCB297;}
	.st5{fill:#6E4315;}
	.st6{fill:#A29500;}
	.st7{fill:#AF6617;}
	.st8{fill:#454C53;}
</style>
<path class="st0" d="M134.8,109.9c0-15.3-5.3-24-20.3-26.3v-4.9h-15v4.9c-14,2.3-20.2,11-20.2,26.3l-9,42.6l10,2.5l9.7-46.9
	c0-11.9,4.7-10.8,16.2-10.7v0.1c12.1,0,18-1.6,18,10.5l9.7,46.9l10-2.5L134.8,109.9z"/>
<path class="st0" d="M107.6,153.6l13.7-0.3l-4.2,52.6c0,0,7.7,7.6,2.6,8.4c-8.7,1.4-11.5-8.1-11.5-8.1S108.7,172.7,107.6,153.6z"/>
<path class="st1" d="M116.7,205.2c0,0,10.2,10.1,3.2,12.9c-5.5,2.2-12.2-2.9-12.1-11.9c0,0,8.1,8.7,10,7.5S116.7,205.2,116.7,205.2z
	"/>
<path class="st0" d="M105.9,153.6l-13.7-0.3l4.2,52.6c0,0-7.7,7.6-2.6,8.4c8.7,1.4,11.5-8.1,11.5-8.1S104.9,172.7,105.9,153.6z"/>
<path class="st1" d="M96,205.2c0,0-10.2,10.1-3.2,12.9c5.5,2.2,12.2-2.9,12.1-11.9c0,0-8.1,8.7-10.1,7.5S96,205.2,96,205.2z"/>
<path class="st1" d="M136.2,181.3c0,0-0.8,8.5-29.1,8.5S78,181.3,78,181.3s10.6-69.8,29.1-69.8S136.2,181.3,136.2,181.3z"/>
<path class="st0" d="M132.4,55.5c0,14.5-13.2,26.2-25.5,26.2S81.4,70,81.4,55.5s11.4-26.2,25.5-26.2S132.4,41.1,132.4,55.5z"/>
<path class="st0" d="M77.8,157.3c-0.6,2.4-3,3.8-5.3,3.2l0,0c-2.4-0.6-3.8-3-3.2-5.3l1.4-5.7c0.6-2.4,3-3.8,5.3-3.2l0,0
	c2.4,0.6,3.8,3,3.2,5.3L77.8,157.3z"/>
<line class="st2" x1="71.1" y1="146.6" x2="83.2" y2="149"/>
<path class="st0" d="M136.3,157.3c0.6,2.4,3,3.8,5.3,3.2l0,0c2.4-0.6,3.8-3,3.2-5.3l-1.4-5.7c-0.6-2.4-3-3.8-5.3-3.2l0,0
	c-2.4,0.6-3.8,3-3.2,5.3L136.3,157.3z"/>
<path class="st3" d="M133.6,97.6c-2.7-11.1-14.6-14-14.6-14H95.1c0,0-11.9,2.9-14.6,14c-1.3,5.8-2.3,11.6-2.9,17.4l12.3,0.5v17.1
	h34.2v-16.9l12.3-0.6C135.8,109.3,134.9,103.4,133.6,97.6z"/>
<path class="st4" d="M92.5,38.8c0,0,1.8,7.5,10.9,7s13.8-8,16.7-3.5s0.9,15.2,7.4,17.6c6.5,2.4-0.4,10.9-0.4,10.9s5.4,2.5,10.9-2.5
	c0,0-3.5-2.7-2.5-9.6s3.3-15.9-3.1-20.9s-8.9-12-20.9-13.5S91,31.8,91,31.8s-5-1-9,4s-6.4,15.7-4.5,24.1s-2.9,10.9-2.9,10.9
	s9.1,3.8,13.2,1.4c0,0-7.6-11.9-4.7-15.4S91.5,43.3,92.5,38.8z"/>
<path class="st2" d="M97.6,83.9c0,0,2.6,7.1,9.4,7.1s8.8-6.7,8.8-6.7"/>
<path class="st0" d="M64.6,41.1c0,15.3-14,27.8-27.1,27.8S10.5,56.4,10.5,41.1s12.1-27.8,27.1-27.8S64.6,25.7,64.6,41.1z"/>
<rect x="29.5" y="66.7" class="st0" width="17" height="8"/>
<path class="st0" d="M37.5,72.7h-0.3c-20.2,0-30.8,10.2-30.8,30.5l-6,46v6c0,2.8,2.2,5,5,5s5-2.2,5-5v-2.5H12l3.2-27.4l1.3-23.8
	c0-13.6,7.2-14.2,20.7-14.2l0.2,0.6c13.6,0,20.7,0,20.7,13.6l4.5,51.2h2.7v2.5c0,2.8,2.2,5,5,5s5-2.2,5-5v-2.2l-0.6-3.5l-7.2-46.2
	C67.7,83.1,57.8,72.7,37.5,72.7z"/>
<path class="st5" d="M18.7,128.7l-0.6,79H30c0,0,3.1-60.5,7.1-60.5s7.2,60.5,7.2,60.5H56l0.2-79H18.7z"/>
<path class="st6" d="M37.5,78c-6,0-8.1-4.7-8.3-4.7C16.9,75.3,9.3,82.9,7,94.9c-0.5,2.6-7,51.8-7,51.8h12.9l5.4-40.8l0.2,32.6
	l37.7,0.5l0.9-32.2l5.2,39.9h12.4c0,0-6.8-52-7.9-55.6c-3-9.5-10-15.9-20.7-17.8C44.2,76.2,41,78,37.5,78z"/>
<path class="st7" d="M17.8,207.8c-2.3,1-4.7,1.8-7.2,2.4c-2.7,0.6-4.1,4.2,0.8,4.3s18.8-0.1,18.8-0.1l-0.3-6.7L17.8,207.8z"/>
<path class="st8" d="M8.7,213.3c0.5,0.6,1.6,1.1,3.4,1.2c4.9,0.1,18.5,0,18.5,0v-1.2H8.7z"/>
<path class="st7" d="M55.9,207.7c0,0,5.7,1.9,8.4,2.4s3.3,4.1-1.6,4.2s-18.2,0.1-18.2,0.1v-6.8H55.9z"/>
<path class="st8" d="M66.4,213.3c-0.5,0.6-1.6,1.1-3.4,1.2c-4.9,0.1-18.3,0-18.3,0v-1.2H66.4z"/>
<path class="st4" d="M20.8,19.2c0,0-17.9,12.5-8.6,32.5H16c0,0-3.9-9.9-0.9-13.9S27.4,33.2,20.8,19.2z"/>
<path class="st4" d="M53.7,19.2c0,0,17.8,12.5,8.6,32.5h-3.9c0,0,3.9-9.9,0.9-13.9S47,33.2,53.7,19.2z"/>
<path class="st4" d="M38.2,57.1c0.5-4.2-5.1-5.5-8.3-3.2s-5.8,1.5-6.7-1.9c0,0-2.1,2.7,0.6,6.6C26.9,63.2,37.5,63,38.2,57.1z"/>
<path class="st4" d="M37.2,57.1c-0.5-4.2,5.1-5.5,8.3-3.2s5.8,1.5,6.7-1.9c0,0,2.1,2.7-0.6,6.6C48.5,63.2,37.9,63,37.2,57.1z"/>
</svg>
